<?xml version="1.0" encoding="UTF-8" standalone="no"?>
<!-- Created with Inkscape (http://www.inkscape.org/) -->

<svg
   width="800"
   height="800"
   viewBox="0 0 211.66667 211.66667"
   version="1.1"
   id="svg1"
   xml:space="preserve"
   xmlns="http://www.w3.org/2000/svg"
   xmlns:svg="http://www.w3.org/2000/svg"><defs
     id="defs1" /><g
     id="layer3"
     style="display:inline"
     transform="matrix(2.368741,0,0,2.4503462,-122.95435,-110.75802)"><path
       style="display:inline;opacity:1;fill:#666099;fill-opacity:1;stroke:#ffffff;stroke-width:0.554956;stroke-dasharray:none;stroke-opacity:1"
       d="m 76.440229,106.98985 c -3.850484,-1.62061 -6.509237,-4.71017 -7.164653,-9.889459 -2.862087,-22.617049 31.662404,-37.367502 58.500444,-33.736572 7.99345,1.081437 -14.79496,-11.144544 -40.048051,-5.513862 -15.076124,3.361524 -37.013654,16.876236 -34.34646,41.260095 1.089364,9.959118 8.593666,15.302968 17.895246,17.657038"
       id="path26" /><path
       style="opacity:1;fill:#81fc90;fill-opacity:1;stroke:#ffffff;stroke-width:0.554956;stroke-dasharray:none;stroke-opacity:1"
       d="m 65.671731,55.057526 c 0.119493,0 33.99681,-0.950153 31.45608,14.724124 -2.742303,16.917782 -23.394956,27.687862 -24.763295,28.332779 -0.9945,0.468721 18.417569,-5.524285 27.440405,-4.825058 16.114099,1.248766 33.216799,4.102948 40.825979,-6.32958 -11.46578,2.111431 -28.89429,-1.378862 -39.48017,0.01812 25.58084,-14.493531 4.29555,-48.565748 -35.478999,-31.92038 z"
       id="path2" /><path
       style="display:inline;opacity:1;fill:#3573a6;fill-opacity:1;stroke-width:0.109822"
       d="m 76.805985,104.69212 -7.113303,-0.12772 c -4.482713,-1.48448 -8.20091,-4.791953 -7.695394,-18.170947 0.702413,-5.655307 1.501869,-11.256302 8.45232,-13.414792 7.699694,-0.121953 15.089809,0.07352 24.35782,-0.04844 -0.06502,-0.484047 -0.127262,-1.557588 -0.05248,-2.311933 l -15.910843,0.01532 -0.06833,-8.630689 c 3.264092,-8.004744 27.897795,-8.965514 31.412355,0.731716 l -0.0313,18.658756 c -0.64792,3.298595 -3.52858,5.381865 -6.35917,6.117147 -6.394441,1.146376 -16.025745,-0.848198 -21.63895,0.933443 -2.356463,0.747947 -4.376152,2.863489 -5.149103,5.754444 z"
       id="path3" /><path
       style="display:inline;fill:#fac636;fill-opacity:0.992157;stroke-width:0.109822"
       d="m 112.45308,72.802053 7.1133,0.127717 c 4.48272,1.484476 8.20092,4.791952 7.6954,18.170948 -0.70242,5.655303 -1.50187,11.256302 -8.45232,13.414792 -7.6997,0.12195 -15.08981,-0.0735 -24.357821,0.0484 0.06502,0.48404 0.127262,1.55758 0.05248,2.31193 l 15.910841,-0.0153 0.0683,8.63068 c -3.26409,8.00475 -27.89778,8.96552 -31.412339,-0.73171 l 0.03128,-18.658759 c 0.647922,-3.298595 3.528584,-5.381864 6.359172,-6.117144 6.394442,-1.146377 16.025737,0.848194 21.638947,-0.933444 2.35646,-0.747948 4.37615,-2.86349 5.1491,-5.754445 z"
       id="path3-7" /><path
       style="display:inline;opacity:1;fill:#666099;fill-opacity:1;stroke:#ffffff;stroke-width:0.554956;stroke-dasharray:none;stroke-opacity:1"
       d="m 71.153829,116.70234 c 14.167443,3.58554 32.504391,0.23509 38.694381,-4.30769 2.8655,-2.10297 -8.35485,11.63292 -6.84849,12.03068 5.66853,0.51284 11.33707,-1.63599 17.0056,-2.45398 l 7.83549,-26.408486 c 0,0 -35.821902,17.966586 -51.590487,11.329866"
       id="path1" /></g></svg>
